<svg id="Layer_1" data-name="Layer 1" xmlns="http://www.w3.org/2000/svg" xmlns:xlink="http://www.w3.org/1999/xlink" viewBox="0 0 329.78 742.09"><defs><style>.cls-1{fill:#fabf97;}.cls-2{fill:#bc5b59;}.cls-3{fill:#3b3b3d;}.cls-4{fill:#626264;}.cls-5{fill:#454547;}.cls-6{fill:#eaa182;}.cls-7{clip-path:url(#clip-path);}.cls-8{fill:#3c3c3b;}.cls-9{clip-path:url(#clip-path-2);}.cls-10{fill:#fff;}.cls-11{fill:#db8b99;}</style><clipPath id="clip-path" transform="translate(-57 -74.21)"><polygon class="cls-1" points="304.92 211.95 298.57 292.12 260.49 292.12 254.14 211.95 304.92 211.95 304.92 211.95"/></clipPath><clipPath id="clip-path-2" transform="translate(-57 -74.21)"><path class="cls-2" d="M256.36,216.2H302.7c22.4,0,4.27,22.35-20.76,24.07-.6.07-2.21.11-2.41.1s-1.81,0-2.41-.1c-25-1.71-43.16-24.07-20.76-24.07Z"/></clipPath></defs><title>explaining-avatar</title><path class="cls-3" d="M306.34,771.27s-4.25,24.1-1.81,28.12,18.4.2,51.41,15.42c8.25,3.8,24.84-.12,29.75-7S378,792,366.59,789.11s-37.5-9.83-38.6-17.18l-21.66-.66Z" transform="translate(-57 -74.21)"/><path class="cls-3" d="M252.94,771.27s4.25,24.1,1.81,28.12-18.4.2-51.41,15.42c-8.25,3.8-24.84-.12-29.75-7s7.71-15.79,19.1-18.73,37.5-9.83,38.6-17.18l21.66-.66Z" transform="translate(-57 -74.21)"/><path class="cls-4" d="M234.55,493c.53-6.48,1-19.76,1.33-26.8h87.49c.36,7,.8,20.32,1.33,26.8,4.08,50,7.15,173.26,3.43,279.32,0,0-14.48-.51-22.09-.82.61-106.83-11.07-254.59-26.41-254.59s-27,147.76-26.41,254.59c-7.62.3-22.09.82-22.09.82C227.39,666.24,230.47,543,234.55,493Z" transform="translate(-57 -74.21)"/><path class="cls-5" d="M119.62,302.32c9.88,33.15,32.45,69.83,51.49,66.66s39-57.9,43.09-83.62c1-6.07,15.17-9.28,22.3-11,8.44-2-5.08,58.95-5.08,58.95S210.1,401.22,172,402.63s-72.5-89-72.5-89l20.1-11.29Z" transform="translate(-57 -74.21)"/><path class="cls-6" d="M324.37,199.67c-5.14-2.08-6.55-10.59-3.15-19s10.33-13.57,15.47-11.49,6.55,10.59,3.15,19-10.33,13.57-15.47,11.49Z" transform="translate(-57 -74.21)"/><path class="cls-6" d="M234.69,199.67c5.14-2.08,6.55-10.59,3.15-19s-10.33-13.57-15.47-11.49-6.55,10.59-3.15,19,10.33,13.57,15.47,11.49Z" transform="translate(-57 -74.21)"/><polygon class="cls-1" points="247.91 137.74 241.57 217.91 203.49 217.91 197.14 137.74 247.91 137.74 247.91 137.74"/><g class="cls-7"><path class="cls-6" d="M279.53,265.15c-30.38,0-63.46-45.37-63.46-97.16s-18.62-93.78,63.46-93.78S343,116.2,343,168s-33.09,97.16-63.46,97.16Z" transform="translate(-57 -74.21)"/></g><path class="cls-1" d="M279.53,257.11c-9.75,0-36.43-12.66-46.4-26.15-6.79-9.19-3.7-15.15-3.7-32,0-41.43-15.57-91.94,50.09-91.94s50.09,50.51,50.09,91.94c0,17.08,2.95,22.85-4,32.08-10,13.16-36.3,26-46,26Z" transform="translate(-57 -74.21)"/><path class="cls-5" d="M255.64,178.59c5.21.36,10.15,4.07,10.6-.73.51-5.55-4.64-9.21-9.84-9.75-4-.42-9.82,3.81-9.63,8.64.21,5.38,3.66,1.48,8.86,1.84Z" transform="translate(-57 -74.21)"/><path class="cls-5" d="M303.42,178.59c-5.21.36-10.15,4.07-10.6-.73-.51-5.55,4.64-9.21,9.84-9.75,4-.42,9.82,3.81,9.63,8.64-.21,5.38-3.66,1.48-8.86,1.84Z" transform="translate(-57 -74.21)"/><path class="cls-8" d="M255.51,178.64c5.2.36,10.13,4.07,10.58-.73.51-5.54-4.63-9.19-9.82-9.73-4-.42-9.8,3.8-9.61,8.62.21,5.37,3.65,1.48,8.85,1.84Z" transform="translate(-57 -74.21)"/><path class="cls-8" d="M303.55,178.64c-5.2.36-10.13,4.07-10.58-.73-.51-5.54,4.63-9.19,9.82-9.73,4-.42,9.8,3.8,9.61,8.62-.21,5.37-3.65,1.48-8.85,1.84Z" transform="translate(-57 -74.21)"/><path class="cls-2" d="M256.36,216.2H302.7c22.4,0,4.27,22.35-20.76,24.07-.6.07-2.21.11-2.41.1s-1.81,0-2.41-.1c-25-1.71-43.16-24.07-20.76-24.07Z" transform="translate(-57 -74.21)"/><g class="cls-9"><path class="cls-10" d="M299.61,208.48s5.38,0,5.38,5.39v2.69s0,5.39-5.38,5.39H259.44s-5.38,0-5.38-5.39v-2.69s0-5.39,5.38-5.39Z" transform="translate(-57 -74.21)"/><path class="cls-11" d="M256.36,247.59H302.7c22.4,0,4.27-22.35-20.76-24.07-.6-.07-2.21-.11-2.41-.1s-1.81,0-2.41.1c-25,1.71-43.16,24.07-20.76,24.07Z" transform="translate(-57 -74.21)"/><path class="cls-10" d="M294.17,234.54s3.93,0,3.93,3.93v2s0,3.93-3.93,3.93H264.89s-3.93,0-3.93-3.93v-2s0-3.93,3.93-3.93Z" transform="translate(-57 -74.21)"/></g><path class="cls-5" d="M339.9,106.7c-.37-2.92-3.35-2.48-6.29-2.3-9.17.57-11.41-2.51-30.13-13.54s-37.75-6.6-50.47,2.85c-58.53,13.51-24.25,93-24.25,93s-.21-41.82,17.89-54.53c30.31,20.67,61.28,21.8,78.92,9.5,6.8,15.87,4.58,45,4.58,45s11.71-29.5,5.32-55.61c3.92-6.63,5.64-14.84,4.44-24.37Z" transform="translate(-57 -74.21)"/><path class="cls-5" d="M216.15,282.12c12.48-9.35,42.73-11.83,42.73-11.83s12.13,15.26,20.71,15.26h0c8.58,0,20.71-15.26,20.71-15.26s30.25,2.49,42.73,11.83c-.12.06-11.6,17.59-15.43,45.52-1.27,9.26-2.55,104.1-2.55,145.59,0,3.58-22.73,5.38-45.45,5.38s-45.45-1.8-45.45-5.38c0-41.49-1.28-136.33-2.55-145.59-3.83-27.93-15.32-45.45-15.43-45.52Z" transform="translate(-57 -74.21)"/><path class="cls-1" d="M325.46,493.64c-6.7-4.38-21-13.27-21-13.27s4.09-12.11,13.22-13.22c5.55-.68,11.2,10.15,13.38,14.6,2.08,6.32-3.26,9.71-5.61,11.88Z" transform="translate(-57 -74.21)"/><path class="cls-5" d="M343.27,282.37s44.06,103,37.89,122.42-37.76,65.76-49,78.77l-11.48-15.5,30.23-59.95s6-10.11-.29-23.76S324.37,319,324.37,319s5.2-11.84,7.91-19.24c8.29-22.59,11-17.37,11-17.37Z" transform="translate(-57 -74.21)"/><path class="cls-1" d="M116.8,306.74s7.7-6.11,1.33-13.55-13.29-10.1-13.55-21.79c0,0-4.78-5.31-6.37,2.39a20,20,0,0,0,2.92,15.67s-13-1.33-17.8-5-10.09-8-10.63-10.89-.44-7-4.25-7.71c-2.25-.39-6.11,2.39-4,8.24,0,0-4.52.27-4.78,3.45,0,0-3.72,2.39-2.39,5.58,0,0,14.44,30.48,43.13,31.28,4,.11,11.6-3.38,16.38-7.63Z" transform="translate(-57 -74.21)"/></svg>