<svg id="Layer_1" data-name="Layer 1" xmlns="http://www.w3.org/2000/svg" xmlns:xlink="http://www.w3.org/1999/xlink" viewBox="0 0 326.51 776.97"><defs><style>.cls-1{fill:#fabf97;}.cls-2{fill:#bc5b59;}.cls-3{fill:#3b3b3d;}.cls-4{fill:#626264;}.cls-5{fill:#454547;}.cls-6{fill:#eaa182;}.cls-7{clip-path:url(#clip-path);}.cls-8{fill:#3c3c3b;}.cls-9{clip-path:url(#clip-path-2);}.cls-10{fill:#fff;}.cls-11{fill:#db8b99;}</style><clipPath id="clip-path" transform="translate(-132 -56.08)"><polygon class="cls-1" points="269.26 199.16 262.67 282.45 223.11 282.45 216.52 199.16 269.26 199.16 269.26 199.16"/></clipPath><clipPath id="clip-path-2" transform="translate(-132 -56.08)"><path class="cls-2" d="M218.82,203.58H267c23.28,0,4.44,23.22-21.56,25-.62.07-2.29.11-2.5.1s-1.89,0-2.5-.1c-26-1.78-44.84-25-21.56-25Z"/></clipPath></defs><title>happy-avatar</title><path class="cls-3" d="M271,786.28s-4.41,25-1.88,29.21,19.11.21,53.41,16c8.57,4,25.8-.12,30.9-7.24s-8-16.41-19.84-19.46S294.67,794.6,293.52,787L271,786.28Z" transform="translate(-132 -56.08)"/><path class="cls-3" d="M215.56,786.28s4.41,25,1.87,29.21-19.11.21-53.4,16c-8.58,4-25.81-.12-30.9-7.24s8-16.41,19.84-19.46,39-10.21,40.1-17.84l22.5-.69Z" transform="translate(-132 -56.08)"/><path class="cls-4" d="M196.45,497.19c.55-6.73,1-20.52,1.38-27.84h90.89c.37,7.31.83,21.11,1.38,27.84,4.23,52,7.43,180,3.56,290.15,0,0-15-.53-22.95-.85.63-111-11.49-264.47-27.44-264.47s-28.07,153.5-27.44,264.47c-7.91.31-22.95.85-22.95.85-3.87-110.16-.67-238.17,3.56-290.15Z" transform="translate(-132 -56.08)"/><path class="cls-5" d="M409.07,293c-10.26,34.44-33.71,72.54-53.49,69.24s-40.48-60.15-44.76-86.86c-1-6.31-15.76-9.64-23.17-11.38-8.77-2.06,5.27,61.23,5.27,61.23s22.14,70.5,61.71,72,75.32-92.48,75.32-92.48L409.07,293Z" transform="translate(-132 -56.08)"/><path class="cls-6" d="M289.47,186.41c-5.34-2.16-6.81-11-3.27-19.75s10.73-14.09,16.08-11.93,6.81,11,3.27,19.75-10.73,14.09-16.08,11.94Z" transform="translate(-132 -56.08)"/><path class="cls-6" d="M196.31,186.41c5.34-2.16,6.81-11,3.27-19.75s-10.73-14.09-16.08-11.93-6.81,11-3.27,19.75,10.73,14.09,16.08,11.94Z" transform="translate(-132 -56.08)"/><polygon class="cls-1" points="137.26 143.08 130.67 226.36 91.11 226.36 84.52 143.08 137.26 143.08 137.26 143.08"/><g class="cls-7"><path class="cls-6" d="M242.89,254.43C211.33,254.43,177,207.3,177,153.5s-19.34-97.41,65.92-97.41,65.92,43.61,65.92,97.41-34.37,100.93-65.92,100.93Z" transform="translate(-132 -56.08)"/></g><path class="cls-1" d="M242.89,246.08c-10.13,0-37.85-13.15-48.2-27.16-7.05-9.55-3.84-15.74-3.84-33.19,0-43-16.18-95.51,52-95.51s52,52.47,52,95.51c0,17.74,3.06,23.73-4.2,33.32-10.35,13.67-37.71,27-47.83,27Z" transform="translate(-132 -56.08)"/><path class="cls-5" d="M218.07,164.5c5.41.38,10.55,4.23,11-.76.53-5.76-4.82-9.57-10.22-10.12-4.2-.43-10.2,4-10,9,.22,5.59,3.8,1.53,9.21,1.91Z" transform="translate(-132 -56.08)"/><path class="cls-5" d="M267.71,164.5c-5.41.38-10.55,4.23-11-.76-.53-5.76,4.82-9.57,10.22-10.12,4.2-.43,10.2,4,10,9-.22,5.59-3.8,1.53-9.21,1.91Z" transform="translate(-132 -56.08)"/><path class="cls-8" d="M217.94,164.56c5.4.38,10.52,4.23,11-.76.53-5.75-4.81-9.55-10.2-10.11-4.19-.43-10.18,3.95-10,9,.22,5.58,3.79,1.53,9.19,1.91Z" transform="translate(-132 -56.08)"/><path class="cls-8" d="M267.84,164.56c-5.4.38-10.52,4.23-11-.76-.53-5.75,4.81-9.55,10.2-10.11,4.19-.43,10.18,3.95,10,9-.22,5.58-3.79,1.53-9.19,1.91Z" transform="translate(-132 -56.08)"/><path class="cls-2" d="M218.82,203.58H267c23.28,0,4.44,23.22-21.56,25-.62.07-2.29.11-2.5.1s-1.89,0-2.5-.1c-26-1.78-44.84-25-21.56-25Z" transform="translate(-132 -56.08)"/><g class="cls-9"><path class="cls-10" d="M263.75,195.56s5.59,0,5.59,5.59V204s0,5.59-5.59,5.59H222s-5.6,0-5.6-5.59v-2.8s0-5.59,5.6-5.59Z" transform="translate(-132 -56.08)"/><path class="cls-11" d="M218.82,236.18H267c23.28,0,4.44-23.22-21.56-25-.62-.07-2.29-.11-2.5-.1s-1.89,0-2.5.1c-26,1.78-44.84,25-21.56,25Z" transform="translate(-132 -56.08)"/><path class="cls-10" d="M258.1,222.63s4.08,0,4.08,4.08v2s0,4.08-4.08,4.08H227.68s-4.08,0-4.08-4.08v-2s0-4.08,4.08-4.08Z" transform="translate(-132 -56.08)"/></g><path class="cls-5" d="M305.6,89.83c-.38-3-3.47-2.58-6.53-2.39-9.52.6-11.85-2.61-31.3-14.06s-39.21-6.86-52.43,3c-60.8,14-25.18,96.56-25.18,96.56s-.22-43.44,18.58-56.65c31.48,21.47,63.66,22.64,82,9.87,7.07,16.48,4.76,46.78,4.76,46.78s12.16-30.64,5.52-57.76c4.07-6.89,5.86-15.42,4.61-25.31Z" transform="translate(-132 -56.08)"/><path class="cls-5" d="M308.79,272.06c-13-9.71-44.38-12.29-44.38-12.29s-12.6,15.85-21.51,15.85h0c-8.92,0-21.51-15.85-21.51-15.85S190,262.35,177,272.06c.12.07,12,18.27,16,47.29,1.32,9.62,2.65,108.13,2.65,151.23,0,3.73,23.61,5.59,47.22,5.59s47.22-1.86,47.22-5.59c0-43.1,1.33-141.62,2.65-151.23,4-29,15.91-47.22,16-47.29Z" transform="translate(-132 -56.08)"/><path class="cls-1" d="M195.24,491.77C202.2,487.23,217,478,217,478s-4.25-12.57-13.73-13.73c-5.77-.71-11.64,10.55-13.9,15.17-2.16,6.56,3.39,10.09,5.83,12.35Z" transform="translate(-132 -56.08)"/><path class="cls-5" d="M176.74,272.31s-45.77,107-39.36,127.17,39.22,68.31,50.88,81.82l11.92-16.1-31.4-62.27s-6.26-10.5.3-24.68,27.29-67.9,27.29-67.9-5.4-12.3-8.22-20c-8.62-23.47-11.41-18-11.41-18Z" transform="translate(-132 -56.08)"/><path class="cls-1" d="M414.25,264.28c2.95-1.23,3.51-1.73,5.6-.87,0,0,.23-.2.61-.6.93-1.78,15.75-30.14,17.77-33,4.69-6.58,12.94-1.75,10.85,3.82s-5.87,12.87-14.23,27.45c0,0,2.16-2,5.83-.23s3.07,4.32,3.07,4.32,4.75-.78,6.57.92a9.22,9.22,0,0,1,2.46,3.51s5.86,1,5.72,3.24c-.78,12.07-16,35.79-29.13,32.27-.1,0-.19,0-.3,0-6.81-1.43-17.26-6-20.94-13-2.89-5.46-3.47-8.52-1.86-14.21,1.57-5.52,3-11.57,8-13.65Z" transform="translate(-132 -56.08)"/></svg>