<svg id="Layer_1" data-name="Layer 1" xmlns="http://www.w3.org/2000/svg" xmlns:xlink="http://www.w3.org/1999/xlink" viewBox="0 0 228.73 792.17"><defs><style>.cls-1{fill:#fabf97;}.cls-2{fill:#3b3b3d;}.cls-3{fill:#626264;}.cls-4{fill:#eaa182;}.cls-5{clip-path:url(#clip-path);}.cls-6{fill:#454547;}.cls-7{fill:#3c3c3b;}.cls-8{fill:none;stroke:#bc5b59;stroke-linecap:round;stroke-width:9.72px;}</style><clipPath id="clip-path" transform="translate(-135.99 -48.13)"><polygon class="cls-1" points="277.28 195.17 270.51 280.75 229.86 280.75 223.08 195.17 277.28 195.17 277.28 195.17"/></clipPath></defs><title>Untitled-1</title><path class="cls-2" d="M278.86,792.23s-4.54,25.73-1.93,30,19.65.22,54.88,16.47c8.81,4.06,26.51-.13,31.75-7.45s-8.23-16.85-20.38-20-40-10.5-41.2-18.34l-23.12-.71Z" transform="translate(-135.99 -48.13)"/><path class="cls-2" d="M221.86,792.23s4.53,25.73,1.93,30-19.64.22-54.88,16.47c-8.81,4.06-26.52-.13-31.75-7.45s8.23-16.85,20.38-20,40-10.5,41.2-18.34l23.12-.71Z" transform="translate(-135.99 -48.13)"/><path class="cls-3" d="M202.22,495.16c.56-6.92,1-21.1,1.42-28.61H297c.39,7.52.86,21.69,1.42,28.61,4.35,53.41,7.64,185,3.66,298.17,0,0-15.45-.55-23.58-.87.65-114-11.81-271.77-28.2-271.77s-28.84,157.73-28.2,271.77c-8.13.32-23.58.87-23.58.87-4-113.21-.69-244.76,3.66-298.17Z" transform="translate(-135.99 -48.13)"/><path class="cls-1" d="M318.8,565.09c-1.27,1.74-12.46,16.94-10.68,21.87s5.85,9.41,7.63,9.66-2.38,3.2-2.38,4.78,10.52,17.85,18.15,14.29,11.19-4.33,14.24-12.72-6.87-38.65-11.19-39.41-15.77,1.52-15.77,1.52Z" transform="translate(-135.99 -48.13)"/><path class="cls-1" d="M181.71,565.09C183,566.83,194.17,582,192.38,587s-5.84,9.41-7.63,9.66,2.38,3.2,2.38,4.78S176.62,619.25,169,615.7,157.8,611.37,154.75,603s6.86-38.65,11.19-39.41,15.77,1.52,15.77,1.52Z" transform="translate(-135.99 -48.13)"/><path class="cls-4" d="M298,182.06c-5.49-2.22-7-11.31-3.36-20.3s11-14.49,16.52-12.27,7,11.3,3.36,20.3-11,14.48-16.52,12.27Z" transform="translate(-135.99 -48.13)"/><path class="cls-4" d="M202.31,182.06c5.49-2.22,7-11.31,3.36-20.3s-11-14.49-16.51-12.27-7,11.3-3.37,20.3,11,14.48,16.52,12.27Z" transform="translate(-135.99 -48.13)"/><polygon class="cls-1" points="141.29 147.03 134.51 232.62 93.87 232.62 87.09 147.03 141.29 147.03 141.29 147.03"/><g class="cls-5"><path class="cls-4" d="M250.18,252c-32.42,0-67.75-48.43-67.75-103.72S162.56,48.13,250.18,48.13,317.93,93,317.93,148.24,282.61,252,250.18,252Z" transform="translate(-135.99 -48.13)"/></g><path class="cls-1" d="M250.18,243.38c-10.4,0-38.89-13.52-49.52-27.91-7.25-9.81-4-16.18-4-34.11,0-44.23-16.62-98.15,53.47-98.15s53.48,53.92,53.48,98.15c0,18.24,3.14,24.39-4.32,34.24-10.64,14-38.75,27.78-49.16,27.78Z" transform="translate(-135.99 -48.13)"/><path class="cls-6" d="M224.68,159.55c5.56.39,10.84,4.35,11.31-.78.55-5.92-5-9.83-10.5-10.41-4.31-.44-10.48,4.07-10.28,9.22.23,5.75,3.9,1.58,9.46,2Z" transform="translate(-135.99 -48.13)"/><path class="cls-6" d="M275.68,159.55c-5.56.39-10.84,4.35-11.31-.78-.55-5.92,5-9.83,10.5-10.41,4.31-.44,10.48,4.07,10.28,9.22-.23,5.75-3.9,1.58-9.46,2Z" transform="translate(-135.99 -48.13)"/><path class="cls-7" d="M224.54,159.6c5.55.39,10.82,4.35,11.29-.77.55-5.91-4.94-9.81-10.48-10.38-4.31-.44-10.46,4.06-10.26,9.2.23,5.74,3.9,1.58,9.45,2Z" transform="translate(-135.99 -48.13)"/><path class="cls-7" d="M275.82,159.6c-5.55.39-10.82,4.35-11.29-.77-.55-5.91,4.94-9.81,10.48-10.38,4.3-.44,10.46,4.06,10.25,9.2-.23,5.74-3.89,1.58-9.44,2Z" transform="translate(-135.99 -48.13)"/><path class="cls-6" d="M314.63,82.81c-.39-3.12-3.57-2.65-6.71-2.45-9.79.61-12.18-2.68-32.17-14.45s-40.3-7.05-53.88,3C159.39,83.38,196,168.18,196,168.18s-.23-44.64,19.09-58.21c32.35,22.07,65.42,23.27,84.24,10.14,7.26,16.94,4.89,48.07,4.89,48.07s12.5-31.49,5.68-59.36c4.18-7.08,6-15.84,4.74-26Z" transform="translate(-135.99 -48.13)"/><path class="cls-6" d="M317.9,282.92c-13.32-10-45.61-25.47-45.61-25.47s-12.95,16.29-22.11,16.29h0c-9.16,0-22.11-16.29-22.11-16.29s-32.29,15.5-45.61,25.47c.13.07,12.38,5.94,16.47,35.75,1.35,9.88,2.73,111.12,2.73,155.41,0,3.82,24.26,5.74,48.52,5.74s48.52-1.92,48.52-5.74c0-44.29,1.37-145.53,2.73-155.41,4.09-29.81,16.35-35.68,16.47-35.75Z" transform="translate(-135.99 -48.13)"/><path class="cls-6" d="M182.21,283.19s-30.58,269.66-18.6,283.55h19.27l19.51-257.31s-5.55-12.64-8.45-20.54c2.3-15-11.72-5.7-11.72-5.7Z" transform="translate(-135.99 -48.13)"/><path class="cls-6" d="M318.31,283.19s30.58,269.66,18.61,283.55H317.65L298.14,309.42s5.55-12.64,8.45-20.54c-3-14,11.72-5.7,11.72-5.7Z" transform="translate(-135.99 -48.13)"/><path class="cls-8" d="M222.09,216.69s10.4-13,28.09-13,28.09,13,28.09,13" transform="translate(-135.99 -48.13)"/></svg>